<svg width="953" height="953" viewBox="0 0 953 953" fill="none" xmlns="http://www.w3.org/2000/svg">
<g clip-path="url(#clip0_1527_38)">
<path d="M546.646 764.724C545.674 765.575 544.398 766 542.818 766C541.602 766 540.508 765.575 539.536 764.724C538.564 763.873 537.956 762.779 537.713 761.442C535.646 751.232 533.58 742.845 531.514 736.282C529.326 729.597 526.409 724.309 522.762 720.42C518.994 716.409 513.889 713.309 507.448 711.122C500.884 708.812 492.315 706.867 481.74 705.287C478.58 704.801 477 703.099 477 700.182C477 697.022 478.58 695.199 481.74 694.713C492.315 693.133 500.945 691.188 507.63 688.878C514.193 686.569 519.42 683.409 523.309 679.398C527.077 675.387 530.055 670.16 532.243 663.718C534.309 657.155 536.133 648.89 537.713 638.923C538.32 635.641 540.022 634 542.818 634C545.856 634 547.68 635.58 548.287 638.74C550.354 648.95 552.481 657.337 554.669 663.901C556.735 670.464 559.652 675.751 563.42 679.762C567.066 683.652 572.111 686.751 578.552 689.061C584.994 691.249 593.503 693.133 604.077 694.713C607.359 695.199 609 697.022 609 700.182C609 702.978 607.359 704.68 604.077 705.287C593.503 706.867 584.934 708.751 578.37 710.939C571.807 713.127 566.641 716.227 562.873 720.238C558.983 724.249 556.006 729.536 553.939 736.099C551.751 742.663 549.867 751.05 548.287 761.26C548.166 762.718 547.619 763.873 546.646 764.724Z" fill="black"/>
<path d="M425.359 677.124C423.93 678.375 422.054 679 419.732 679C417.946 679 416.338 678.375 414.909 677.124C413.48 675.874 412.587 674.266 412.229 672.301C409.192 657.296 406.156 644.97 403.119 635.323C399.903 625.498 395.616 617.727 390.257 612.011C384.719 606.116 377.216 601.561 367.749 598.345C358.102 594.951 345.508 592.093 329.967 589.771C325.322 589.056 323 586.555 323 582.268C323 577.623 325.322 574.944 329.967 574.229C345.508 571.907 358.192 569.049 368.017 565.655C377.663 562.261 385.344 557.616 391.061 551.721C396.599 545.826 400.975 538.145 404.191 528.677C407.227 519.03 409.907 506.883 412.229 492.235C413.122 487.412 415.623 485 419.732 485C424.198 485 426.878 487.322 427.771 491.967C430.808 506.972 433.934 519.298 437.149 528.945C440.186 538.591 444.473 546.362 450.011 552.257C455.37 557.973 462.784 562.529 472.251 565.923C481.719 569.138 494.224 571.907 509.765 574.229C514.588 574.944 517 577.623 517 582.268C517 586.377 514.588 588.878 509.765 589.771C494.224 592.093 481.63 594.862 471.983 598.077C462.337 601.293 454.745 605.848 449.207 611.743C443.491 617.638 439.114 625.409 436.077 635.055C432.862 644.702 430.093 657.028 427.771 672.033C427.592 674.177 426.788 675.874 425.359 677.124Z" fill="black"/>
<path d="M672 421.5V263C672 212.595 672 187.393 662.191 168.141C653.562 151.206 639.794 137.438 622.859 128.809C603.607 119 578.405 119 528 119H404C353.595 119 328.393 119 309.141 128.809C292.206 137.438 278.438 151.206 269.809 168.141C260 187.393 260 212.595 260 263V691C260 741.405 260 766.607 269.809 785.859C278.438 802.794 292.206 816.562 309.141 825.191C328.393 835 353.595 835 404 835H542C579.246 835 597.869 835 612.782 829.572C637.781 820.473 657.473 800.781 666.572 775.782C672 760.869 672 742.246 672 705" stroke="black" stroke-width="61" stroke-linecap="round"/>
<rect x="420" y="192" width="98" height="25" rx="12.5" fill="black"/>
<path d="M792.216 735.607L468.502 413.02C461.501 405.816 458 397.447 458 387.913C458 378.167 461.395 369.798 468.184 362.806C474.761 355.602 483.035 352 493.007 352C503.19 352 511.783 355.602 518.784 362.806L842.498 685.075C849.499 692.491 853 700.966 853 710.5C853 720.034 849.605 728.403 842.816 735.607C836.239 742.599 827.859 746.095 817.675 746.095C807.703 746.307 799.217 742.811 792.216 735.607ZM599.618 509.635L615.53 494.38L505.736 384.417C503.615 382.298 500.963 381.239 497.78 381.239C494.81 381.239 492.264 382.298 490.142 384.417C487.809 386.748 486.642 389.396 486.642 392.362C486.642 395.329 487.809 397.871 490.142 399.99L599.618 509.635Z" fill="black"/>
</g>
<defs>
<clipPath id="clip0_1527_38">
<rect width="953" height="953" fill="white"/>
</clipPath>
</defs>
</svg>
